{
	"asset":{
		"generator":"Khronos glTF Blender I/O v4.2.57",
		"version":"2.0"
	},
	"scene":0,
	"scenes":[
		{
			"name":"Scene",
			"nodes":[
				0,
				1,
				2,
				3,
				4,
				5,
				6
			]
		}
	],
	"nodes":[
		{
			"mesh":0,
			"name":"Blade.001",
			"rotation":[
				0.7071068286895752,
				0,
				0,
				0.7071068286895752
			]
		},
		{
			"mesh":1,
			"name":"Handle.001",
			"rotation":[
				0.7071068286895752,
				0,
				0,
				0.7071068286895752
			]
		},
		{
			"mesh":2,
			"name":"Middle.001",
			"rotation":[
				0.7071068286895752,
				0,
				0,
				0.7071068286895752
			]
		},
		{
			"mesh":3,
			"name":"Rings.002",
			"rotation":[
				0.7071068286895752,
				0,
				0,
				0.7071068286895752
			]
		},
		{
			"mesh":4,
			"name":"Rings.003",
			"rotation":[
				0.7071068286895752,
				0,
				0,
				0.7071068286895752
			]
		},
		{
			"mesh":5,
			"name":"Rings.004",
			"rotation":[
				0.7071068286895752,
				0,
				0,
				0.7071068286895752
			]
		},
		{
			"mesh":6,
			"name":"Ruby.001",
			"rotation":[
				0.7071068286895752,
				0,
				0,
				0.7071068286895752
			]
		}
	],
	"materials":[
		{
			"doubleSided":true,
			"name":"Material.002",
			"pbrMetallicRoughness":{
				"baseColorFactor":[
					0.800000011920929,
					0.800000011920929,
					0.800000011920929,
					1
				],
				"roughnessFactor":0.1218487024307251
			}
		},
		{
			"doubleSided":true,
			"name":"Material.003",
			"pbrMetallicRoughness":{
				"baseColorFactor":[
					0.4232650101184845,
					0.11193300038576126,
					0.028426000848412514,
					1
				],
				"metallicFactor":0,
				"roughnessFactor":0.47272729873657227
			}
		},
		{
			"doubleSided":true,
			"name":"Material.004",
			"pbrMetallicRoughness":{
				"baseColorFactor":[
					0.04537200182676315,
					0.04537200182676315,
					0.04537200182676315,
					1
				],
				"metallicFactor":0.804544985294342,
				"roughnessFactor":0.33636367321014404
			}
		},
		{
			"doubleSided":true,
			"name":"Material.006",
			"pbrMetallicRoughness":{
				"baseColorFactor":[
					0.800000011920929,
					0.800000011920929,
					0.800000011920929,
					1
				],
				"roughnessFactor":0.3500000238418579
			}
		},
		{
			"doubleSided":true,
			"name":"Material.007",
			"pbrMetallicRoughness":{
				"baseColorFactor":[
					0.18868200480937958,
					0.18868200480937958,
					0.18868200480937958,
					1
				],
				"roughnessFactor":0.22268903255462646
			}
		},
		{
			"doubleSided":true,
			"name":"Material.008",
			"pbrMetallicRoughness":{
				"baseColorFactor":[
					0.8004580140113831,
					0.03286600112915039,
					0.06981600075960159,
					1
				],
				"roughnessFactor":0.050000011920928955
			}
		}
	],
	"meshes":[
		{
			"name":"Blade.001",
			"primitives":[
				{
					"attributes":{
						"POSITION":0,
						"NORMAL":1,
						"TEXCOORD_0":2
					},
					"indices":3,
					"material":0
				}
			]
		},
		{
			"name":"Handle.001",
			"primitives":[
				{
					"attributes":{
						"POSITION":4,
						"NORMAL":5,
						"TEXCOORD_0":6
					},
					"indices":7,
					"material":1
				}
			]
		},
		{
			"name":"Middle.001",
			"primitives":[
				{
					"attributes":{
						"POSITION":8,
						"NORMAL":9,
						"TEXCOORD_0":10
					},
					"indices":11,
					"material":2
				}
			]
		},
		{
			"name":"Rings.002",
			"primitives":[
				{
					"attributes":{
						"POSITION":12,
						"NORMAL":13,
						"TEXCOORD_0":14
					},
					"indices":15,
					"material":3
				}
			]
		},
		{
			"name":"Rings.003",
			"primitives":[
				{
					"attributes":{
						"POSITION":16,
						"NORMAL":17,
						"TEXCOORD_0":18
					},
					"indices":19,
					"material":3
				}
			]
		},
		{
			"name":"Rings.004",
			"primitives":[
				{
					"attributes":{
						"POSITION":20,
						"NORMAL":21,
						"TEXCOORD_0":22
					},
					"indices":23,
					"material":4
				}
			]
		},
		{
			"name":"Ruby.001",
			"primitives":[
				{
					"attributes":{
						"POSITION":24,
						"NORMAL":25,
						"TEXCOORD_0":26
					},
					"indices":27,
					"material":5
				}
			]
		}
	],
	"accessors":[
		{
			"bufferView":0,
			"componentType":5126,
			"count":138,
			"max":[
				0.9509149789810181,
				8.32844352722168,
				0.39936500787734985
			],
			"min":[
				-0.9509149789810181,
				0.08784899860620499,
				-0.3712939918041229
			],
			"type":"VEC3"
		},
		{
			"bufferView":1,
			"componentType":5126,
			"count":138,
			"type":"VEC3"
		},
		{
			"bufferView":2,
			"componentType":5126,
			"count":138,
			"type":"VEC2"
		},
		{
			"bufferView":3,
			"componentType":5123,
			"count":240,
			"type":"SCALAR"
		},
		{
			"bufferView":4,
			"componentType":5126,
			"count":181,
			"max":[
				0.6085010170936584,
				-0.05519000068306923,
				0.3207480013370514
			],
			"min":[
				-0.6085010170936584,
				-4.280070781707764,
				-0.3207480013370514
			],
			"type":"VEC3"
		},
		{
			"bufferView":5,
			"componentType":5126,
			"count":181,
			"type":"VEC3"
		},
		{
			"bufferView":6,
			"componentType":5126,
			"count":181,
			"type":"VEC2"
		},
		{
			"bufferView":7,
			"componentType":5123,
			"count":606,
			"type":"SCALAR"
		},
		{
			"bufferView":8,
			"componentType":5126,
			"count":344,
			"max":[
				2.9101500511169434,
				0.42290401458740234,
				0.42290401458740234
			],
			"min":[
				-2.9101500511169434,
				-0.42290401458740234,
				-0.42290401458740234
			],
			"type":"VEC3"
		},
		{
			"bufferView":9,
			"componentType":5126,
			"count":344,
			"type":"VEC3"
		},
		{
			"bufferView":10,
			"componentType":5126,
			"count":344,
			"type":"VEC2"
		},
		{
			"bufferView":11,
			"componentType":5123,
			"count":564,
			"type":"SCALAR"
		},
		{
			"bufferView":12,
			"componentType":5126,
			"count":264,
			"max":[
				0.6339030265808105,
				-1.0118939876556396,
				0.3276529908180237
			],
			"min":[
				-0.6339030265808105,
				-3.926753044128418,
				-0.3276529908180237
			],
			"type":"VEC3"
		},
		{
			"bufferView":13,
			"componentType":5126,
			"count":264,
			"type":"VEC3"
		},
		{
			"bufferView":14,
			"componentType":5126,
			"count":264,
			"type":"VEC2"
		},
		{
			"bufferView":15,
			"componentType":5123,
			"count":552,
			"type":"SCALAR"
		},
		{
			"bufferView":16,
			"componentType":5126,
			"count":192,
			"max":[
				2.193169116973877,
				0.2860719859600067,
				0.2860719859600067
			],
			"min":[
				-2.193169116973877,
				-0.2860719859600067,
				-0.2860719859600067
			],
			"type":"VEC3"
		},
		{
			"bufferView":17,
			"componentType":5126,
			"count":192,
			"type":"VEC3"
		},
		{
			"bufferView":18,
			"componentType":5126,
			"count":192,
			"type":"VEC2"
		},
		{
			"bufferView":19,
			"componentType":5123,
			"count":264,
			"type":"SCALAR"
		},
		{
			"bufferView":20,
			"componentType":5126,
			"count":242,
			"max":[
				1.0100630521774292,
				0.6377630233764648,
				0.4044469892978668
			],
			"min":[
				-1.0100630521774292,
				-0.6642320156097412,
				-0.3921949863433838
			],
			"type":"VEC3"
		},
		{
			"bufferView":21,
			"componentType":5126,
			"count":242,
			"type":"VEC3"
		},
		{
			"bufferView":22,
			"componentType":5126,
			"count":242,
			"type":"VEC2"
		},
		{
			"bufferView":23,
			"componentType":5123,
			"count":408,
			"type":"SCALAR"
		},
		{
			"bufferView":24,
			"componentType":5126,
			"count":215,
			"max":[
				0.8749110102653503,
				-4.2690911293029785,
				0.3748070001602173
			],
			"min":[
				-0.8749110102653503,
				-5.337593078613281,
				-0.3748070001602173
			],
			"type":"VEC3"
		},
		{
			"bufferView":25,
			"componentType":5126,
			"count":215,
			"type":"VEC3"
		},
		{
			"bufferView":26,
			"componentType":5126,
			"count":215,
			"type":"VEC2"
		},
		{
			"bufferView":27,
			"componentType":5123,
			"count":1002,
			"type":"SCALAR"
		}
	],
	"bufferViews":[
		{
			"buffer":0,
			"byteLength":1656,
			"byteOffset":0,
			"target":34962
		},
		{
			"buffer":0,
			"byteLength":1656,
			"byteOffset":1656,
			"target":34962
		},
		{
			"buffer":0,
			"byteLength":1104,
			"byteOffset":3312,
			"target":34962
		},
		{
			"buffer":0,
			"byteLength":480,
			"byteOffset":4416,
			"target":34963
		},
		{
			"buffer":0,
			"byteLength":2172,
			"byteOffset":4896,
			"target":34962
		},
		{
			"buffer":0,
			"byteLength":2172,
			"byteOffset":7068,
			"target":34962
		},
		{
			"buffer":0,
			"byteLength":1448,
			"byteOffset":9240,
			"target":34962
		},
		{
			"buffer":0,
			"byteLength":1212,
			"byteOffset":10688,
			"target":34963
		},
		{
			"buffer":0,
			"byteLength":4128,
			"byteOffset":11900,
			"target":34962
		},
		{
			"buffer":0,
			"byteLength":4128,
			"byteOffset":16028,
			"target":34962
		},
		{
			"buffer":0,
			"byteLength":2752,
			"byteOffset":20156,
			"target":34962
		},
		{
			"buffer":0,
			"byteLength":1128,
			"byteOffset":22908,
			"target":34963
		},
		{
			"buffer":0,
			"byteLength":3168,
			"byteOffset":24036,
			"target":34962
		},
		{
			"buffer":0,
			"byteLength":3168,
			"byteOffset":27204,
			"target":34962
		},
		{
			"buffer":0,
			"byteLength":2112,
			"byteOffset":30372,
			"target":34962
		},
		{
			"buffer":0,
			"byteLength":1104,
			"byteOffset":32484,
			"target":34963
		},
		{
			"buffer":0,
			"byteLength":2304,
			"byteOffset":33588,
			"target":34962
		},
		{
			"buffer":0,
			"byteLength":2304,
			"byteOffset":35892,
			"target":34962
		},
		{
			"buffer":0,
			"byteLength":1536,
			"byteOffset":38196,
			"target":34962
		},
		{
			"buffer":0,
			"byteLength":528,
			"byteOffset":39732,
			"target":34963
		},
		{
			"buffer":0,
			"byteLength":2904,
			"byteOffset":40260,
			"target":34962
		},
		{
			"buffer":0,
			"byteLength":2904,
			"byteOffset":43164,
			"target":34962
		},
		{
			"buffer":0,
			"byteLength":1936,
			"byteOffset":46068,
			"target":34962
		},
		{
			"buffer":0,
			"byteLength":816,
			"byteOffset":48004,
			"target":34963
		},
		{
			"buffer":0,
			"byteLength":2580,
			"byteOffset":48820,
			"target":34962
		},
		{
			"buffer":0,
			"byteLength":2580,
			"byteOffset":51400,
			"target":34962
		},
		{
			"buffer":0,
			"byteLength":1720,
			"byteOffset":53980,
			"target":34962
		},
		{
			"buffer":0,
			"byteLength":2004,
			"byteOffset":55700,
			"target":34963
		}
	],
	"buffers":[
		{
			"byteLength":57704,
			"uri":"LowPolySword.bin"
		}
	]
}
